<?xml version="1.0" standalone="no"?>
<!DOCTYPE svg PUBLIC "-//W3C//DTD SVG 20010904//EN"
 "http://www.w3.org/TR/2001/REC-SVG-20010904/DTD/svg10.dtd">
<svg version="1.0" xmlns="http://www.w3.org/2000/svg"
 width="15852.000000pt" height="3771.000000pt" viewBox="0 0 15852.000000 3771.000000"
 preserveAspectRatio="xMidYMid meet">
<metadata>
Created by potrace 1.14, written by Peter Selinger 2001-2017
</metadata>
<g transform="translate(0.000000,3771.000000) scale(0.100000,-0.100000)"
fill="#000000" stroke="none">
<path d="M120675 31629 c-430 -20 -736 -125 -874 -299 -80 -101 -166 -344
-182 -515 -15 -155 -6 -7737 9 -7890 42 -420 74 -632 131 -870 88 -360 210
-641 355 -817 192 -232 525 -408 956 -506 466 -106 1307 -161 1695 -112 228
30 409 101 489 192 157 180 223 520 213 1100 -6 377 -34 556 -112 725 -65 141
-135 213 -279 283 -100 49 -161 59 -421 70 -287 11 -347 23 -433 87 -56 42
-84 119 -113 308 -10 62 -14 902 -19 3725 -5 3425 -7 3652 -24 3755 -30 190
-110 382 -201 482 -143 160 -433 263 -784 278 -64 3 -145 7 -181 9 -36 1 -137
-1 -225 -5z"/>
<path d="M87966 31599 c-170 -11 -359 -43 -474 -81 -209 -69 -329 -178 -416
-377 -65 -149 -86 -239 -96 -411 -5 -85 -9 -873 -10 -1751 l0 -1597 -137 137
c-159 157 -276 244 -453 335 -213 109 -413 172 -680 213 -175 27 -576 24 -765
-5 -424 -66 -810 -215 -1183 -458 -542 -353 -1036 -883 -1352 -1448 -368 -659
-520 -1441 -434 -2231 91 -836 455 -1584 1084 -2229 574 -588 1178 -920 1871
-1027 122 -19 185 -23 409 -23 302 0 413 12 650 70 364 90 644 244 909 500
109 105 110 106 116 77 16 -77 61 -198 93 -255 48 -81 169 -203 252 -251 94
-54 208 -96 345 -126 115 -25 133 -26 440 -26 402 0 584 24 804 104 203 74
315 170 399 342 29 58 60 139 71 180 48 189 46 18 46 4854 0 4350 -1 4546 -18
4675 -23 168 -53 263 -129 412 -65 128 -127 197 -230 256 -201 115 -641 171
-1112 141z m-2049 -6009 c325 -54 577 -225 785 -534 103 -154 166 -301 204
-476 27 -126 25 -374 -4 -492 -59 -240 -178 -443 -377 -643 -213 -215 -455
-320 -765 -332 -290 -11 -518 48 -737 192 -108 71 -306 267 -382 378 -102 150
-174 325 -201 490 -25 158 -6 391 47 552 101 313 358 623 628 758 116 58 294
107 435 121 69 6 297 -2 367 -14z"/>
<path d="M106260 31210 c-375 -30 -669 -78 -989 -161 -751 -194 -1438 -553
-2071 -1081 -1014 -846 -1615 -1866 -1820 -3090 -133 -794 -88 -1702 120
-2460 255 -929 744 -1743 1476 -2458 926 -904 1992 -1393 3226 -1480 187 -13
560 -13 798 0 1194 66 2120 373 2824 935 136 109 348 314 433 420 124 155 207
313 255 487 l23 83 0 1800 0 1800 -23 129 c-44 242 -104 385 -208 496 -108
114 -264 185 -509 232 l-120 23 -1495 0 c-1635 0 -1542 3 -1745 -57 -371 -109
-468 -338 -452 -1068 10 -447 54 -619 198 -760 91 -89 186 -132 372 -167 67
-13 209 -16 780 -20 l697 -4 -2 -782 -3 -781 -140 -49 c-387 -135 -780 -199
-1235 -200 -167 0 -271 5 -360 17 -488 66 -896 241 -1310 562 -144 111 -421
385 -531 524 -355 450 -555 941 -615 1510 -20 190 -14 605 10 770 63 421 183
752 384 1060 279 429 782 846 1262 1049 395 166 746 231 1190 218 534 -16 913
-129 1341 -400 276 -174 472 -276 651 -339 84 -29 105 -32 208 -32 104 -1 123
2 203 31 220 78 452 270 702 583 223 277 363 537 411 760 17 79 18 230 3 302
-14 64 -65 179 -109 243 -56 82 -151 175 -271 265 -452 341 -1012 642 -1524
822 -349 123 -734 210 -1116 254 -166 18 -750 27 -919 14z"/>
<path d="M31055 31029 c-259 -20 -493 -77 -635 -156 -145 -81 -248 -225 -326
-458 -32 -97 -37 -124 -45 -274 -6 -102 -8 -1786 -6 -4381 3 -3931 4 -4223 20
-4330 23 -152 58 -277 107 -377 112 -229 372 -370 785 -425 81 -10 627 -13
2895 -13 2635 0 2801 1 2908 18 246 39 434 116 520 213 89 99 142 241 173 464
19 127 18 581 0 710 -18 130 -54 266 -88 336 -37 76 -125 170 -204 217 -80 47
-212 90 -349 113 -98 17 -239 19 -2182 21 l-2078 4 -3 3752 c-3 4030 0 3786
-48 3992 -71 306 -353 497 -828 560 -138 19 -463 26 -616 14z"/>
<path d="M60769 28269 c-932 -46 -1780 -418 -2521 -1106 -646 -600 -1030
-1329 -1152 -2193 -59 -416 -54 -897 14 -1297 87 -506 297 -1021 583 -1428
426 -605 983 -1088 1584 -1372 788 -372 1608 -478 2448 -317 575 110 1142 355
1586 685 496 370 957 928 1212 1469 227 482 340 978 354 1550 24 973 -238
1798 -793 2495 -106 133 -439 468 -584 588 -629 518 -1277 807 -2020 901 -111
14 -482 38 -535 34 -11 0 -90 -5 -176 -9z m482 -2518 c354 -71 726 -299 899
-551 154 -226 234 -553 216 -885 -17 -308 -99 -562 -246 -757 -149 -197 -469
-415 -745 -507 -162 -54 -243 -66 -430 -65 -148 0 -185 3 -282 26 -138 33
-287 91 -413 163 -402 227 -603 510 -666 937 -23 156 -15 470 15 610 86 395
281 653 656 867 157 90 333 150 520 177 118 17 349 10 476 -15z"/>
<path d="M41030 28250 c-990 -76 -1794 -406 -2487 -1021 -715 -634 -1110
-1469 -1194 -2522 -17 -223 -7 -730 20 -927 100 -733 361 -1359 822 -1975 314
-419 679 -714 1198 -969 395 -193 818 -310 1373 -378 167 -20 226 -22 693 -23
523 0 683 7 1042 46 1008 109 1617 385 1828 830 58 124 78 214 78 369 1 114
-3 151 -26 242 -86 347 -285 699 -498 884 -75 65 -151 110 -241 142 -65 23
-87 26 -198 26 -140 -1 -238 -22 -410 -88 -402 -156 -499 -186 -726 -226 -251
-43 -403 -54 -769 -55 l-350 0 -119 28 c-317 76 -635 231 -824 402 -140 127
-232 308 -232 454 l0 51 1698 0 c1021 0 1737 4 1797 10 456 45 895 356 1096
777 198 415 233 1059 90 1638 -176 709 -632 1351 -1247 1755 -427 281 -925
448 -1534 515 -170 19 -706 28 -880 15z m525 -2240 c138 -16 250 -47 360 -100
265 -128 405 -341 405 -614 0 -240 -97 -377 -316 -442 -55 -17 -133 -18 -1043
-21 l-984 -4 6 85 c15 208 133 425 341 624 271 259 585 431 862 471 84 12 263
13 369 1z"/>
<path d="M93860 28254 c-333 -28 -473 -46 -708 -95 -781 -162 -1476 -544
-2038 -1121 -576 -591 -899 -1321 -990 -2238 -24 -240 -24 -696 -1 -910 59
-526 187 -962 416 -1415 256 -505 587 -933 941 -1216 561 -449 1237 -711 2075
-804 202 -23 854 -31 1167 -16 834 43 1412 158 1828 366 343 171 555 419 609
710 19 104 14 278 -13 395 -64 282 -235 618 -411 808 -125 135 -238 206 -387
244 -148 37 -342 9 -571 -83 -305 -124 -425 -162 -627 -203 -285 -57 -583 -80
-947 -73 -286 5 -359 16 -562 83 -128 42 -376 163 -485 235 -148 98 -275 237
-330 362 -25 55 -56 185 -56 231 l0 25 1768 4 1767 3 97 22 c274 63 487 182
700 392 279 276 410 615 437 1129 36 697 -160 1353 -572 1911 -531 720 -1278
1122 -2292 1236 -132 15 -703 27 -815 18z m460 -2244 c225 -27 380 -85 519
-196 71 -57 146 -145 181 -214 55 -108 83 -298 61 -413 -27 -144 -118 -262
-238 -307 -128 -48 -146 -49 -1156 -50 l-949 0 7 68 c31 289 193 536 522 791
222 172 438 276 658 315 96 17 279 20 395 6z"/>
<path d="M126780 28240 c-1261 -56 -2095 -430 -2488 -1117 -177 -309 -262
-675 -262 -1128 0 -615 136 -1130 408 -1545 232 -354 487 -556 1027 -815 456
-219 833 -333 1365 -415 431 -66 678 -141 809 -248 140 -113 85 -303 -113
-392 -145 -65 -340 -94 -641 -94 -201 0 -231 2 -348 27 -243 52 -482 146 -747
295 -408 229 -629 322 -850 358 -162 26 -300 10 -428 -51 -94 -45 -152 -103
-274 -281 -252 -364 -408 -670 -452 -887 -43 -208 15 -441 142 -574 119 -124
626 -401 1011 -552 802 -315 1554 -402 2541 -295 700 76 1376 289 1717 543
298 220 518 521 658 895 204 550 216 1335 28 1881 -61 177 -174 390 -300 568
-85 119 -260 291 -373 366 -227 151 -751 367 -1169 482 -174 47 -487 111 -661
134 -574 74 -830 154 -998 310 -84 77 -115 140 -120 241 -4 67 -1 87 16 121
54 104 193 168 447 205 142 20 592 17 735 -5 252 -40 407 -88 711 -220 343
-149 507 -195 631 -176 183 28 373 185 551 456 188 288 301 553 329 778 27
214 -48 370 -247 518 -196 146 -747 364 -1211 480 -488 123 -891 161 -1444
137z"/>
<path d="M49310 28110 c-412 -52 -764 -237 -1085 -571 -99 -103 -224 -256
-295 -361 -25 -37 -48 -68 -52 -68 -5 0 -8 35 -8 78 0 296 -129 593 -312 722
-180 127 -424 179 -873 187 -311 6 -439 -5 -621 -52 -257 -67 -407 -183 -515
-398 -74 -147 -100 -242 -110 -411 -11 -197 -11 -5556 0 -5751 10 -162 33
-254 107 -428 78 -181 200 -284 426 -358 329 -107 938 -118 1316 -23 325 81
480 217 576 506 61 181 59 134 66 1868 7 1623 7 1628 46 1820 95 461 344 706
745 735 110 8 263 -8 358 -37 120 -36 199 -85 297 -183 75 -75 98 -106 141
-190 86 -169 133 -356 153 -609 6 -78 10 -701 10 -1590 1 -804 5 -1506 9
-1561 10 -114 55 -265 123 -405 98 -203 302 -327 637 -384 325 -55 798 -43
1086 30 319 80 474 220 574 520 65 193 64 155 71 1904 6 1412 8 1596 23 1689
58 359 152 562 313 677 137 98 287 138 514 138 215 1 347 -35 492 -130 156
-104 277 -293 337 -529 57 -222 53 -115 61 -1870 5 -1179 11 -1640 19 -1693
23 -138 116 -374 183 -460 66 -86 202 -173 347 -222 353 -119 1040 -118 1396
1 211 71 320 159 404 326 68 136 97 225 117 364 16 103 18 257 22 1599 4 1774
-2 2001 -73 2497 -103 718 -313 1273 -635 1678 -35 44 -114 131 -174 194 -412
423 -902 671 -1466 741 -336 41 -649 12 -934 -87 -295 -102 -747 -373 -1003
-600 -104 -92 -304 -319 -444 -502 l-25 -34 -61 99 c-395 642 -978 1022 -1718
1119 -146 19 -462 27 -565 15z"/>
<path d="M66470 28094 c-137 -17 -265 -38 -348 -60 -171 -44 -324 -131 -401
-227 -46 -57 -135 -243 -163 -342 l-23 -80 0 -3005 c0 -2873 1 -3008 18 -3070
29 -103 106 -290 144 -347 101 -153 290 -249 598 -304 170 -31 616 -38 823
-15 335 39 574 138 685 285 44 57 118 206 147 290 53 159 53 154 60 1821 6
1527 6 1546 27 1638 61 266 151 433 323 602 222 218 488 324 845 337 182 6
322 -6 460 -42 386 -101 682 -384 789 -757 57 -197 56 -177 56 -1664 0 -814 4
-1434 10 -1529 31 -492 133 -706 399 -844 210 -108 451 -151 845 -151 340 0
562 30 753 102 233 88 341 202 423 446 66 197 64 138 68 1822 2 1048 0 1575
-8 1685 -69 1002 -439 1831 -1125 2520 -485 488 -1024 762 -1700 867 -190 29
-588 37 -745 14 -364 -54 -693 -205 -1030 -475 -126 -100 -316 -286 -371 -361
l-44 -61 -7 101 c-17 249 -93 459 -209 572 -103 100 -285 173 -534 214 -74 12
-183 17 -415 19 -173 2 -331 1 -350 -1z"/>
<path d="M79570 28085 c-284 -43 -525 -165 -647 -328 -81 -106 -134 -232 -155
-368 -7 -44 -15 -78 -19 -77 -3 2 -33 37 -67 78 -90 113 -239 252 -344 321
-108 71 -349 191 -493 244 -490 183 -1108 179 -1670 -10 -464 -155 -896 -433
-1324 -850 -472 -461 -794 -954 -984 -1511 -126 -368 -184 -697 -194 -1111
-16 -654 104 -1212 381 -1763 187 -372 410 -680 736 -1014 346 -355 668 -597
1035 -776 428 -209 812 -292 1290 -276 707 22 1218 232 1560 640 87 103 90
106 96 79 3 -15 14 -64 24 -107 10 -46 38 -121 68 -179 64 -128 175 -247 277
-295 210 -99 594 -151 1030 -139 521 14 812 141 931 404 78 174 106 319 119
633 13 294 13 5086 0 5365 -15 340 -36 437 -136 643 -44 90 -68 126 -117 175
-115 115 -263 173 -540 213 -161 23 -726 29 -857 9z m-1859 -2493 c257 -60
454 -186 627 -401 167 -207 270 -429 302 -649 18 -120 8 -366 -18 -464 -58
-215 -159 -390 -337 -585 -169 -184 -386 -305 -635 -354 -87 -17 -356 -17
-450 0 -398 71 -742 333 -926 706 -142 289 -160 588 -54 907 37 109 81 198
158 313 202 304 465 480 806 540 117 21 412 13 527 -13z"/>
<path d="M117160 28094 c-484 -59 -761 -266 -855 -638 -14 -54 -25 -109 -25
-122 0 -13 -3 -24 -7 -24 -5 1 -28 28 -53 61 -71 96 -267 281 -363 344 -125
81 -390 207 -547 259 -569 190 -1236 146 -1850 -121 -695 -302 -1398 -958
-1810 -1686 -424 -750 -561 -1668 -384 -2562 148 -743 546 -1437 1165 -2029
558 -534 1122 -827 1769 -918 141 -19 580 -16 740 6 584 80 1000 290 1281 647
34 43 64 77 66 75 2 -2 12 -44 22 -93 49 -239 182 -426 366 -514 200 -97 575
-147 1010 -136 406 10 652 82 819 238 99 92 176 261 210 459 35 204 37 400 34
3145 -3 2526 -5 2708 -21 2819 -22 148 -55 252 -121 386 -115 234 -284 333
-656 386 -110 15 -700 29 -790 18z m-2010 -2488 c249 -38 467 -149 631 -323
442 -469 521 -1074 204 -1565 -103 -158 -261 -324 -394 -412 -369 -246 -917
-245 -1308 1 -206 129 -377 317 -482 527 -90 182 -121 315 -121 523 0 206 39
372 132 557 191 381 515 631 898 691 115 18 324 18 440 1z"/>
</g>
</svg>
